<?xml version="1.0" standalone="no"?>
<!DOCTYPE svg PUBLIC "-//W3C//DTD SVG 20010904//EN"
 "http://www.w3.org/TR/2001/REC-SVG-20010904/DTD/svg10.dtd">
<svg version="1.0" xmlns="http://www.w3.org/2000/svg"
 width="200.000000pt" height="100.000000pt" viewBox="0 0 200.000000 100.000000"
 preserveAspectRatio="xMidYMid meet">

<g transform="translate(0.000000,100.000000) scale(0.100000,-0.100000)"
fill="#000000" stroke="none">
<path d="M492 773 c-5 -10 -15 -36 -22 -58 -38 -120 -123 -295 -137 -281 -3 3
0 12 7 21 19 23 1 18 -32 -10 -52 -44 -124 -28 -116 27 2 17 15 27 53 40 88
32 126 51 122 62 -11 32 -105 7 -150 -40 -14 -15 -52 -31 -107 -46 -47 -13
-75 -24 -63 -26 12 -2 45 4 74 12 29 9 54 16 55 16 2 0 4 -14 6 -32 4 -46 44
-68 90 -49 18 7 40 13 48 13 8 0 28 12 44 27 26 23 27 24 17 4 -19 -37 -12
-39 19 -3 28 34 29 34 27 10 -2 -22 3 -25 31 -28 18 -2 40 2 48 9 8 6 17 9 21
6 3 -4 21 3 40 14 20 13 33 16 33 9 0 -8 9 -10 28 -5 15 4 54 9 87 11 51 4 64
9 88 35 l27 30 23 -26 c21 -24 25 -26 66 -16 25 5 49 8 53 5 4 -3 18 2 30 10
29 21 44 20 27 0 -12 -15 -61 -44 -75 -44 -3 0 -1 7 6 15 21 25 -5 17 -30 -10
-12 -13 -46 -32 -74 -41 -58 -19 -88 -40 -41 -28 17 4 40 11 53 15 20 8 21 7
12 -10 -25 -47 7 -98 55 -89 30 6 30 7 5 -42 -25 -50 -38 -53 -294 -85 -109
-13 -201 -27 -204 -30 -9 -9 40 -5 198 15 196 25 193 25 180 1 -7 -15 -6 -23
6 -35 14 -14 18 -14 40 1 14 9 31 28 39 42 13 26 16 27 294 61 155 19 281 38
281 43 0 4 -15 5 -32 2 -18 -3 -125 -16 -238 -30 -113 -14 -221 -28 -240 -31
-52 -8 -25 9 45 30 33 10 85 30 115 44 30 15 58 28 63 30 4 2 7 -4 7 -14 0
-16 1 -16 18 -1 10 10 30 17 43 17 14 0 30 5 36 11 6 6 31 12 54 14 59 4 121
26 127 45 4 12 2 13 -9 3 -18 -18 -34 -16 -20 1 18 22 51 16 51 -9 1 -17 6
-13 34 19 l34 39 -5 -29 c-4 -29 -4 -29 16 6 10 19 16 36 11 38 -8 3 16 79 59
190 12 28 17 52 11 52 -17 0 -38 -43 -59 -124 -20 -73 -61 -158 -82 -171 -14
-10 2 54 39 150 19 50 38 101 42 115 4 14 11 33 15 43 4 9 3 17 -2 17 -14 0
-58 -103 -89 -207 -16 -53 -33 -93 -40 -93 -7 0 -23 -13 -36 -29 -27 -32 -114
-58 -121 -37 -3 6 -15 1 -31 -13 -23 -22 -31 -21 -27 2 2 15 -15 6 -27 -14
-10 -16 -16 -18 -27 -9 -11 9 -26 4 -70 -20 -30 -17 -59 -29 -64 -26 -4 3 -34
-6 -67 -19 -32 -13 -60 -22 -62 -20 -3 2 12 33 32 69 20 35 36 67 36 71 0 3
-15 -10 -34 -29 -20 -22 -43 -36 -58 -36 -26 0 -48 17 -48 36 0 21 49 72 76
78 45 12 101 53 106 79 l5 25 -51 -15 c-28 -8 -54 -17 -59 -20 -4 -2 -14 3
-23 11 -20 21 -30 20 -47 -4 -14 -20 -14 -20 -30 4 -16 24 -15 25 31 55 26 17
40 31 32 31 -8 -1 -24 -7 -34 -15 -32 -24 -36 -18 -20 28 28 77 42 127 36 127
-4 0 -20 -37 -36 -83 -15 -45 -35 -87 -43 -94 -8 -6 -14 -14 -14 -17 3 -25 -2
-38 -21 -57 -20 -18 -31 -20 -77 -15 -36 5 -58 2 -69 -6 -12 -10 -16 -10 -19
0 -7 18 -27 15 -59 -10 -23 -18 -27 -19 -21 -5 5 13 1 17 -17 17 -13 0 -29 -7
-36 -16 -8 -8 -22 -20 -33 -26 -18 -9 -19 -8 -14 14 8 31 0 40 -24 27 -17 -9
-18 -7 -8 18 47 123 100 276 96 280 -3 2 -10 -4 -15 -14z m-164 -214 c-30 -17
-98 -38 -98 -30 0 12 62 40 90 40 21 0 23 -1 8 -10z m592 -28 c0 -5 -7 -12
-16 -15 -14 -5 -15 -4 -4 9 14 17 20 19 20 6z m-405 -70 c-3 -6 -11 -11 -17
-11 -6 0 -6 6 2 15 14 17 26 13 15 -4z m370 -275 c-19 -29 -42 -39 -51 -24 -8
13 31 48 52 48 12 0 12 -4 -1 -24z"/>
<path d="M1840 490 c-58 -16 -115 -31 -127 -35 -16 -4 -23 -1 -23 9 0 20 -38
9 -53 -15 -18 -29 -26 -23 -20 16 3 19 1 35 -4 35 -5 0 -9 -18 -10 -40 -2 -36
0 -40 23 -40 13 0 32 4 42 9 9 5 78 24 152 42 74 17 142 36 150 40 29 16 -23
7 -130 -21z"/>
</g>
</svg>
