<svg xmlns="http://www.w3.org/2000/svg" viewBox="0 0 1920 1080"><g transform="
          rotate(0 960 540) 
          translate(-0 -0)
          scale(1)
        "><rect width="1920" height="1080" fill="rgb(255, 255, 255)"></rect><g transform="translate(0, 0)"><path fill="rgb(255, 244, 240)" fill-opacity="1" d="M0,151.261L35.556,150.032C71.111,148.803,142.222,146.345,213.333,145.963C284.444,145.582,355.556,147.279,426.667,147.469C497.778,147.66,568.889,146.345,640,129.936C711.111,113.526,782.222,82.021,853.333,79.361C924.444,76.7,995.556,102.883,1066.667,94.858C1137.778,86.834,1208.889,44.601,1280,42.206C1351.111,39.811,1422.222,77.253,1493.333,86.58C1564.444,95.906,1635.556,77.116,1706.667,59.724C1777.778,42.332,1848.889,26.338,1884.444,18.341L1920,10.344L1920,1080L1884.444,1080C1848.889,1080,1777.778,1080,1706.667,1080C1635.556,1080,1564.444,1080,1493.333,1080C1422.222,1080,1351.111,1080,1280,1080C1208.889,1080,1137.778,1080,1066.667,1080C995.556,1080,924.444,1080,853.333,1080C782.222,1080,711.111,1080,640,1080C568.889,1080,497.778,1080,426.667,1080C355.556,1080,284.444,1080,213.333,1080C142.222,1080,71.111,1080,35.556,1080L0,1080Z"></path></g><g transform="translate(0, 154.28571428571428)"><path fill="rgb(255, 235, 228)" fill-opacity="1" d="M0,107.861L35.556,97.469C71.111,87.078,142.222,66.294,213.333,55.892C284.444,45.489,355.556,45.467,426.667,60.546C497.778,75.625,568.889,105.805,640,122.013C711.111,138.222,782.222,140.459,853.333,122.004C924.444,103.548,995.556,64.398,1066.667,48.267C1137.778,32.136,1208.889,39.022,1280,54.117C1351.111,69.211,1422.222,92.514,1493.333,108.999C1564.444,125.483,1635.556,135.15,1706.667,128.792C1777.778,122.434,1848.889,100.051,1884.444,88.859L1920,77.668L1920,925.714L1884.444,925.714C1848.889,925.714,1777.778,925.714,1706.667,925.714C1635.556,925.714,1564.444,925.714,1493.333,925.714C1422.222,925.714,1351.111,925.714,1280,925.714C1208.889,925.714,1137.778,925.714,1066.667,925.714C995.556,925.714,924.444,925.714,853.333,925.714C782.222,925.714,711.111,925.714,640,925.714C568.889,925.714,497.778,925.714,426.667,925.714C355.556,925.714,284.444,925.714,213.333,925.714C142.222,925.714,71.111,925.714,35.556,925.714L0,925.714Z"></path></g><g transform="translate(0, 308.57142857142856)"><path fill="rgb(255, 230, 220)" fill-opacity="1" d="M0,8.174L35.556,7.002C71.111,5.831,142.222,3.489,213.333,17.605C284.444,31.722,355.556,62.296,426.667,71.907C497.778,81.517,568.889,70.163,640,58.362C711.111,46.561,782.222,34.312,853.333,30.966C924.444,27.62,995.556,33.177,1066.667,37.118C1137.778,41.059,1208.889,43.385,1280,57.024C1351.111,70.663,1422.222,95.615,1493.333,112.607C1564.444,129.6,1635.556,138.632,1706.667,144.051C1777.778,149.469,1848.889,151.272,1884.444,152.174L1920,153.076L1920,771.429L1884.444,771.429C1848.889,771.429,1777.778,771.429,1706.667,771.429C1635.556,771.429,1564.444,771.429,1493.333,771.429C1422.222,771.429,1351.111,771.429,1280,771.429C1208.889,771.429,1137.778,771.429,1066.667,771.429C995.556,771.429,924.444,771.429,853.333,771.429C782.222,771.429,711.111,771.429,640,771.429C568.889,771.429,497.778,771.429,426.667,771.429C355.556,771.429,284.444,771.429,213.333,771.429C142.222,771.429,71.111,771.429,35.556,771.429L0,771.429Z"></path></g><g transform="translate(0, 462.85714285714283)"><path fill="rgb(255, 230, 220)" fill-opacity="1" d="M0,85.064L35.556,78.362C71.111,71.661,142.222,58.257,213.333,46.559C284.444,34.86,355.556,24.867,426.667,39.631C497.778,54.396,568.889,93.919,640,116.643C711.111,139.367,782.222,145.291,853.333,148.463C924.444,151.636,995.556,152.056,1066.667,143.263C1137.778,134.471,1208.889,116.465,1280,105.222C1351.111,93.978,1422.222,89.496,1493.333,80.339C1564.444,71.182,1635.556,57.35,1706.667,68.276C1777.778,79.201,1848.889,114.885,1884.444,132.727L1920,150.569L1920,617.143L1884.444,617.143C1848.889,617.143,1777.778,617.143,1706.667,617.143C1635.556,617.143,1564.444,617.143,1493.333,617.143C1422.222,617.143,1351.111,617.143,1280,617.143C1208.889,617.143,1137.778,617.143,1066.667,617.143C995.556,617.143,924.444,617.143,853.333,617.143C782.222,617.143,711.111,617.143,640,617.143C568.889,617.143,497.778,617.143,426.667,617.143C355.556,617.143,284.444,617.143,213.333,617.143C142.222,617.143,71.111,617.143,35.556,617.143L0,617.143Z"></path></g><g transform="translate(0, 617.1428571428571)"><path fill="rgb(255, 235, 228)" fill-opacity="1" d="M0,132.803L35.556,134.08C71.111,135.358,142.222,137.913,213.333,134.949C284.444,131.984,355.556,123.501,426.667,102.338C497.778,81.175,568.889,47.332,640,51.385C711.111,55.438,782.222,97.386,853.333,106.916C924.444,116.447,995.556,93.56,1066.667,74.098C1137.778,54.637,1208.889,38.601,1280,38.27C1351.111,37.94,1422.222,53.315,1493.333,74.74C1564.444,96.165,1635.556,123.64,1706.667,125.288C1777.778,126.936,1848.889,102.757,1884.444,90.667L1920,78.577L1920,462.857L1884.444,462.857C1848.889,462.857,1777.778,462.857,1706.667,462.857C1635.556,462.857,1564.444,462.857,1493.333,462.857C1422.222,462.857,1351.111,462.857,1280,462.857C1208.889,462.857,1137.778,462.857,1066.667,462.857C995.556,462.857,924.444,462.857,853.333,462.857C782.222,462.857,711.111,462.857,640,462.857C568.889,462.857,497.778,462.857,426.667,462.857C355.556,462.857,284.444,462.857,213.333,462.857C142.222,462.857,71.111,462.857,35.556,462.857L0,462.857Z"></path></g><g transform="translate(0, 771.4285714285714)"><path fill="rgb(255, 244, 240)" fill-opacity="1" d="M0,65.626L35.556,56.311C71.111,46.997,142.222,28.369,213.333,18.834C284.444,9.299,355.556,8.857,426.667,17.245C497.778,25.632,568.889,42.848,640,66.182C711.111,89.515,782.222,118.965,853.333,128.95C924.444,138.936,995.556,129.458,1066.667,108.236C1137.778,87.013,1208.889,54.047,1280,58.103C1351.111,62.159,1422.222,103.238,1493.333,109.655C1564.444,116.072,1635.556,87.827,1706.667,81.207C1777.778,74.587,1848.889,89.593,1884.444,97.096L1920,104.599L1920,308.571L1884.444,308.571C1848.889,308.571,1777.778,308.571,1706.667,308.571C1635.556,308.571,1564.444,308.571,1493.333,308.571C1422.222,308.571,1351.111,308.571,1280,308.571C1208.889,308.571,1137.778,308.571,1066.667,308.571C995.556,308.571,924.444,308.571,853.333,308.571C782.222,308.571,711.111,308.571,640,308.571C568.889,308.571,497.778,308.571,426.667,308.571C355.556,308.571,284.444,308.571,213.333,308.571C142.222,308.571,71.111,308.571,35.556,308.571L0,308.571Z"></path></g><g transform="translate(0, 925.7142857142857)"><path fill="rgb(255, 255, 255)" fill-opacity="1" d="M0,65.128L35.556,73.252C71.111,81.376,142.222,97.624,213.333,105.527C284.444,113.431,355.556,112.99,426.667,105.409C497.778,97.829,568.889,83.108,640,78.861C711.111,74.613,782.222,80.838,853.333,83.881C924.444,86.924,995.556,86.784,1066.667,85.27C1137.778,83.756,1208.889,80.868,1280,78.333C1351.111,75.798,1422.222,73.617,1493.333,63.24C1564.444,52.862,1635.556,34.288,1706.667,23.196C1777.778,12.105,1848.889,8.496,1884.444,6.692L1920,4.887L1920,154.286L1884.444,154.286C1848.889,154.286,1777.778,154.286,1706.667,154.286C1635.556,154.286,1564.444,154.286,1493.333,154.286C1422.222,154.286,1351.111,154.286,1280,154.286C1208.889,154.286,1137.778,154.286,1066.667,154.286C995.556,154.286,924.444,154.286,853.333,154.286C782.222,154.286,711.111,154.286,640,154.286C568.889,154.286,497.778,154.286,426.667,154.286C355.556,154.286,284.444,154.286,213.333,154.286C142.222,154.286,71.111,154.286,35.556,154.286L0,154.286Z"></path></g></g></svg>