<?xml version="1.0" standalone="no"?>
<!DOCTYPE svg PUBLIC "-//W3C//DTD SVG 20010904//EN"
 "http://www.w3.org/TR/2001/REC-SVG-20010904/DTD/svg10.dtd">
<svg version="1.0" xmlns="http://www.w3.org/2000/svg"
 width="1890.000000pt" height="1890.000000pt" viewBox="0 0 1890.000000 1890.000000"
 preserveAspectRatio="xMidYMid meet">

<g transform="translate(0.000000,1890.000000) scale(0.100000,-0.100000)"
fill="#000000" stroke="none">
<path d="M6122 11827 c-13 -6 -34 -32 -48 -58 l-24 -48 23 -60 c19 -53 56 -99
287 -358 303 -340 391 -436 840 -913 179 -190 528 -561 775 -825 248 -264 560
-597 695 -740 264 -281 391 -420 1336 -1465 572 -634 1087 -1201 1343 -1480
58 -63 189 -201 291 -306 249 -256 382 -402 416 -455 26 -42 710 -729 962
-966 121 -115 123 -116 138 -94 79 112 261 270 337 292 15 4 107 15 205 24 97
9 181 20 185 24 4 5 -32 44 -80 89 -48 44 -164 158 -258 253 -93 95 -188 188
-210 208 -22 19 -125 121 -230 225 -104 104 -273 271 -375 370 -102 99 -381
374 -620 611 -239 237 -815 806 -1280 1265 -465 459 -1032 1019 -1260 1245
-1442 1429 -2280 2254 -2668 2627 -387 373 -453 432 -520 469 -133 72 -209 91
-260 66z"/>
<path d="M13658 4350 c-37 -10 -112 -39 -165 -66 -80 -39 -114 -63 -185 -132
-97 -95 -137 -159 -120 -195 21 -47 73 -107 91 -107 10 0 50 21 87 47 38 25
105 71 149 101 44 30 100 74 125 98 38 36 56 45 115 58 144 31 206 36 268 22
58 -14 73 -6 45 22 -6 6 -14 31 -17 54 -5 38 -10 44 -53 65 -50 25 -181 54
-238 52 -19 0 -65 -9 -102 -19z"/>
<path d="M13825 4155 c-62 -11 -85 -23 -186 -92 -64 -43 -148 -108 -187 -145
l-72 -66 20 -43 c11 -24 20 -58 20 -75 0 -25 8 -37 40 -59 23 -16 48 -41 58
-57 15 -27 20 -28 87 -28 70 0 71 1 110 41 22 23 68 54 103 70 34 16 82 42
106 58 78 54 152 81 225 82 36 0 82 6 101 13 31 11 36 18 41 55 9 66 -25 131
-82 156 -24 10 -58 29 -76 42 -86 62 -164 74 -308 48z"/>
<path d="M14123 3805 c-67 -11 -99 -23 -185 -70 -215 -121 -250 -149 -273
-224 -6 -21 45 -76 482 -515 501 -502 902 -923 1008 -1056 32 -41 69 -86 81
-100 12 -14 90 -103 172 -198 82 -95 168 -185 190 -202 l41 -29 118 53 c65 30
143 59 173 65 84 18 332 41 453 41 59 0 107 4 107 9 0 4 -78 96 -172 204 -161
183 -181 202 -289 274 -150 102 -376 249 -464 303 -61 37 -87 64 -206 214
-769 968 -974 1223 -987 1234 -20 15 -139 14 -249 -3z"/>
<path d="M16350 1528 c-255 -23 -335 -37 -400 -66 -36 -16 -105 -39 -155 -52
-49 -13 -94 -26 -98 -30 -12 -11 527 -487 669 -591 l122 -89 200 -60 c228 -68
412 -100 583 -100 60 0 109 3 109 6 0 8 -126 158 -208 248 -34 37 -108 134
-163 215 -55 80 -164 220 -242 310 -123 141 -150 167 -201 192 -63 31 -68 31
-216 17z"/>
</g>
</svg>
